<svg width="512" height="512" viewBox="100 25 480 480" role="img" xmlns="http://www.w3.org/2000/svg">
  <title>Lulu Aurelian Favicon</title>
  <defs>
    <linearGradient id="gGold" x1="0%" y1="0%" x2="0%" y2="100%">
      <stop offset="0%" style="stop-color:#F7ECA5"/>
      <stop offset="35%" style="stop-color:#D4AF37"/>
      <stop offset="65%" style="stop-color:#A8841A"/>
      <stop offset="100%" style="stop-color:#D4AF37"/>
    </linearGradient>

    <linearGradient id="gGoldH" x1="0%" y1="0%" x2="100%" y2="0%">
      <stop offset="0%" style="stop-color:#0D0D0D;stop-opacity:0"/>
      <stop offset="25%" style="stop-color:#C9A227"/>
      <stop offset="50%" style="stop-color:#F7ECA5"/>
      <stop offset="75%" style="stop-color:#C9A227"/>
      <stop offset="100%" style="stop-color:#0D0D0D;stop-opacity:0"/>
    </linearGradient>

    <linearGradient id="gPearl" x1="20%" y1="10%" x2="80%" y2="90%">
      <stop offset="0%" style="stop-color:#FFFFFF"/>
      <stop offset="40%" style="stop-color:#F0EDE8"/>
      <stop offset="75%" style="stop-color:#D8D4CE"/>
      <stop offset="100%" style="stop-color:#BDB9B3"/>
    </linearGradient>

    <linearGradient id="gPearlSheen" x1="30%" y1="20%" x2="70%" y2="80%">
      <stop offset="0%" style="stop-color:#FFFFFF;stop-opacity:0.9"/>
      <stop offset="100%" style="stop-color:#FFFFFF;stop-opacity:0"/>
    </linearGradient>
    <mask id="imagine-text-gaps-qtvcki" maskUnits="userSpaceOnUse"><rect x="0" y="0" width="680" height="530" fill="white"/><rect x="245.65625" y="96" width="187.6875" height="16" fill="black" rx="2"/><rect x="190.03125" y="111" width="299.9375" height="236" fill="black" rx="2"/><rect x="255.3359375" y="396" width="169.328125" height="20" fill="black" rx="2"/></mask>
  </defs>

  <rect x="100" y="25" width="480" height="480" rx="2" fill="#0A0A0A" />
  <rect x="110" y="35" width="460" height="460" rx="1" fill="none" stroke="#D4AF37" stroke-width="0.8" />
  <rect x="118" y="43" width="444" height="444" rx="1" fill="none" stroke="#C9A227" stroke-width="0.3" stroke-dasharray="3 4" />

  <polygon points="110,35 128,35 110,53" fill="#D4AF37" opacity="0.6" />
  <polygon points="570,35 552,35 570,53" fill="#D4AF37" opacity="0.6" />
  <polygon points="110,495 128,495 110,477" fill="#D4AF37" opacity="0.6" />
  <polygon points="570,495 552,495 570,477" fill="#D4AF37" opacity="0.6" />

  <line x1="110" y1="35" x2="138" y2="35" stroke="#D4AF37" stroke-width="1" />
  <line x1="110" y1="35" x2="110" y2="63" stroke="#D4AF37" stroke-width="1" />
  <line x1="570" y1="35" x2="542" y2="35" stroke="#D4AF37" stroke-width="1" />
  <line x1="570" y1="35" x2="570" y2="63" stroke="#D4AF37" stroke-width="1" />
  <line x1="110" y1="495" x2="138" y2="495" stroke="#D4AF37" stroke-width="1" />
  <line x1="110" y1="495" x2="110" y2="467" stroke="#D4AF37" stroke-width="1" />
  <line x1="570" y1="495" x2="542" y2="495" stroke="#D4AF37" stroke-width="1" />
  <line x1="570" y1="495" x2="570" y2="467" stroke="#D4AF37" stroke-width="1" />

  <line x1="200" y1="92" x2="480" y2="92" stroke="url(#gGoldH)" stroke-width="0.6" />
  <polygon points="340,80 346,87 340,94 334,87" fill="#D4AF37" />
  <circle cx="300" cy="87" r="2" fill="none" stroke="#D4AF37" stroke-width="0.6" />
  <circle cx="380" cy="87" r="2" fill="none" stroke="#D4AF37" stroke-width="0.6" />
  <circle cx="260" cy="87" r="1.2" fill="#D4AF37" opacity="0.5" />
  <circle cx="420" cy="87" r="1.2" fill="#D4AF37" opacity="0.5" />

  <text x="340" y="108" text-anchor="middle" font-family="'Cormorant Garamond', serif" font-size="11" font-weight="400" letter-spacing="7" fill="#D4AF37" opacity="0.7">LULU AURELIAN</text>

  <text x="340" y="300" text-anchor="middle" font-family="'Cormorant Garamond', serif" font-size="210" font-weight="300" letter-spacing="6" fill="url(#gGold)">LA</text>

  <circle cx="340" cy="340" r="22" fill="url(#gPearl)" stroke="#D4AF37" stroke-width="0.8" />
  <ellipse cx="333" cy="332" rx="7" ry="5" fill="url(#gPearlSheen)" opacity="0.7" />
  <circle cx="340" cy="340" r="22" fill="none" stroke="#C9A227" stroke-width="0.3" />

  <circle cx="260" cy="340" r="6" fill="url(#gPearl)" stroke="#D4AF37" stroke-width="0.5" />
  <ellipse cx="258" cy="338" rx="2" ry="1.5" fill="#FFFFFF" opacity="0.6" />
  <circle cx="420" cy="340" r="6" fill="url(#gPearl)" stroke="#D4AF37" stroke-width="0.5" />
  <ellipse cx="418" cy="338" rx="2" ry="1.5" fill="#FFFFFF" opacity="0.6" />

  <line x1="270" y1="340" x2="316" y2="340" stroke="#D4AF37" stroke-width="0.5" stroke-dasharray="2 2" opacity="0.6" mask="url(#imagine-text-gaps-qtvcki)" />
  <line x1="364" y1="340" x2="412" y2="340" stroke="#D4AF37" stroke-width="0.5" stroke-dasharray="2 2" opacity="0.6" mask="url(#imagine-text-gaps-qtvcki)" />

  <line x1="180" y1="376" x2="500" y2="376" stroke="url(#gGoldH)" stroke-width="0.6" />

  <text x="340" y="410" text-anchor="middle" font-family="'Cormorant Garamond', serif" font-size="13" font-weight="400" font-style="italic" letter-spacing="3" fill="#D4AF37" opacity="0.85">home away from home</text>

  <line x1="200" y1="428" x2="480" y2="428" stroke="url(#gGoldH)" stroke-width="0.6" />

  <polygon points="340,442 344,447 340,452 336,447" fill="#D4AF37" opacity="0.5" />

</svg>
